<svg xmlns="http://www.w3.org/2000/svg" width="1600" height="1000" viewBox="0 0 1600 1000" shape-rendering="crispEdges" preserveAspectRatio="xMidYMid slice">
  <defs>
    <linearGradient id="sky" x1="0" y1="0" x2="0" y2="1">
      <stop offset="0%" stop-color="#2f5fb0" />
      <stop offset="55%" stop-color="#5b8fd6" />
      <stop offset="100%" stop-color="#a7cdf0" />
    </linearGradient>
    <radialGradient id="glow" cx="50%" cy="50%" r="50%">
      <stop offset="0%" stop-color="#fff6d8" stop-opacity="0.95" />
      <stop offset="100%" stop-color="#fff6d8" stop-opacity="0" />
    </radialGradient>
  </defs>
  <rect width="1600" height="1000" fill="url(#sky)" />
  <circle cx="320" cy="220" r="180" fill="url(#glow)" />
  <circle cx="320" cy="220" r="64" fill="#fff6d8" />
  <polygon fill="#6a86cf" points="0,600 220,430 400,540 620,380 840,500 1060,410 1280,540 1480,440 1600,510 1600,1000 0,1000" />
  <polygon fill="#47649f" points="0,720 260,560 460,660 700,520 940,640 1180,540 1420,660 1600,600 1600,1000 0,1000" />
  <polygon fill="#34477e" points="0,860 300,730 560,820 820,700 1080,820 1360,720 1600,800 1600,1000 0,1000" />
  <polygon fill="#dbe6ff" points="620,380 660,420 580,420" />
  <polygon fill="#dbe6ff" points="1060,410 1096,448 1024,448" />
</svg>
