<svg xmlns="http://www.w3.org/2000/svg" width="512" height="200" viewBox="0 0 512 200" shape-rendering="crispEdges" preserveAspectRatio="xMidYMax slice">
  <!-- distant range (muted blue) -->
  <polygon fill="#35438b" points="0,200 40,200 40,168 80,168 80,136 120,136 120,116 180,116 180,100 332,100 332,116 392,116 392,136 432,136 432,168 472,168 472,200 512,200 512,200 0,200" />

  <!-- near range (bright blue) -->
  <polygon fill="#5069e0" points="0,200 16,200 16,172 40,172 40,140 64,140 64,108 88,108 88,72 112,72 112,44 160,44 160,76 184,76 184,112 208,112 208,144 232,144 232,172 256,172 256,200 288,200 288,168 312,168 312,132 336,132 336,104 360,104 360,88 420,88 420,116 444,116 444,148 468,148 468,176 492,176 492,200 512,200 512,200 0,200" />

  <!-- snow caps (bright near-white blue) -->
  <polygon fill="#dbe6ff" points="112,44 160,44 152,60 120,60" />
  <polygon fill="#dbe6ff" points="360,88 420,88 410,104 370,104" />
</svg>
